<?xml version="1.0" encoding="UTF-8"?>
<svg xmlns="http://www.w3.org/2000/svg" viewBox="0 0 200 200" width="200" height="200">
  <defs>
    <linearGradient id="bg" x1="0%" y1="0%" x2="0%" y2="100%">
      <stop offset="0%" style="stop-color:#87ceeb"/>
      <stop offset="100%" style="stop-color:#e8f4fc"/>
    </linearGradient>
  </defs>
  <rect width="200" height="200" rx="16" fill="url(#bg)"/>
  <!-- Mountain / slope -->
  <polygon points="0,200 200,200 200,120 140,85 100,110 60,75 0,130" fill="#5c7a8a" stroke="#3d5566" stroke-width="2"/>
  <polygon points="0,200 110,200 65,95 0,135" fill="#f0f6fa" opacity="0.95"/>
  <!-- Avalanche path hint -->
  <path d="M 78 108 L 95 200 L 108 200 Z" fill="#ffffff" opacity="0.5"/>
  <!-- Camera / detection frame -->
  <rect x="38" y="28" width="124" height="82" rx="6" fill="none" stroke="#1a4d6e" stroke-width="3"/>
  <path d="M 38 40 H 50 M 162 40 H 150 M 38 98 H 50 M 162 98 H 150 M 38 40 V 52 M 162 40 V 52 M 38 98 V 86 M 162 98 V 86" stroke="#1a4d6e" stroke-width="3"/>
  <!-- Target + bounding box (object detection) -->
  <rect x="82" y="48" width="36" height="36" rx="4" fill="none" stroke="#e85d04" stroke-width="2.5" stroke-dasharray="5 4"/>
  <circle cx="100" cy="66" r="6" fill="#e85d04"/>
  <!-- Drone -->
  <g transform="translate(128, 22)">
    <line x1="0" y1="10" x2="28" y2="10" stroke="#2d3748" stroke-width="3" stroke-linecap="round"/>
    <line x1="14" y1="0" x2="14" y2="20" stroke="#2d3748" stroke-width="3" stroke-linecap="round"/>
    <circle cx="0" cy="10" r="5" fill="#4a5568"/>
    <circle cx="28" cy="10" r="5" fill="#4a5568"/>
    <rect x="8" y="6" width="12" height="8" rx="2" fill="#2d3748"/>
  </g>
  <!-- Label: use XML entity for middle dot (ASCII-only source avoids encoding bugs) -->
  <text x="100" y="188" font-family="system-ui,Segoe UI,Arial,sans-serif" font-size="11" font-weight="600" fill="#1a4d6e" text-anchor="middle">search &#183; detect</text>
</svg>
