<svg width="1604" height="467" viewBox="0 0 1604 467" fill="none" xmlns="http://www.w3.org/2000/svg">
<g clip-path="url(#clip0_1_4)">
<path d="M38.5981 457.852C17.292 457.852 0 440.631 0 419.413V100.811C0 68.4715 18.5014 40.309 48.2734 27.3681C78.0454 14.4272 111.368 20.0648 135.171 42.0772C135.274 42.1797 135.377 42.2565 135.454 42.359L294.169 192.038C309.66 206.644 310.303 230.963 295.662 246.39C280.994 261.816 256.575 262.457 241.084 247.876L82.5743 98.3252C81.931 97.7358 81.0046 97.044 79.1777 97.8383C77.222 98.684 77.222 99.914 77.222 100.811V419.413C77.222 440.631 59.93 457.852 38.6239 457.852H38.5981ZM523.494 419.465V283.188C523.494 221.174 497.324 161.39 451.727 119.184L356.338 29.3413C340.847 14.7347 316.428 15.4266 301.76 30.8275C287.119 46.2541 287.788 70.5728 303.253 85.1793L398.77 175.176C398.77 175.176 398.95 175.356 399.053 175.433C429.057 203.159 446.272 242.443 446.272 283.214V419.49C446.272 440.708 463.564 457.929 484.87 457.929C506.176 457.929 523.468 440.708 523.468 419.49L523.494 419.465ZM1071.3 233.474C1071.3 144.169 1019.04 61.5013 938.141 22.858C918.919 13.684 895.863 21.7561 886.651 40.8984C877.439 60.0407 885.544 83.0012 904.766 92.1751C959.035 118.108 994.108 173.587 994.108 233.5C994.108 319.858 923.551 390.123 836.833 390.123C750.116 390.123 679.559 319.858 679.559 233.5C679.559 173.306 714.863 117.724 769.518 91.8932C788.766 82.7962 796.974 59.8613 787.84 40.6934C778.705 21.5255 755.674 13.3253 736.427 22.448C654.985 60.9376 602.363 143.759 602.363 233.5C602.363 362.243 707.555 467 836.833 467C966.111 467 1071.3 362.243 1071.3 233.5V233.474ZM1603.37 233.474C1603.37 212.256 1586.07 195.036 1564.77 195.036H1378.31C1357.01 195.036 1339.72 212.256 1339.72 233.474C1339.72 254.692 1357.01 271.913 1378.31 271.913H1521.38C1504.14 339.744 1442.31 390.098 1368.9 390.098C1308.45 390.098 1252.64 354.939 1226.7 300.511C1217.57 281.343 1194.54 273.168 1175.29 282.265C1156.04 291.363 1147.83 314.297 1156.97 333.465C1195.62 414.57 1278.81 466.974 1368.9 466.974C1498.17 466.974 1603.37 362.217 1603.37 233.474V233.474ZM1227.01 165.823C1253.05 111.779 1308.76 76.851 1368.92 76.851C1385.47 76.851 1401.73 79.388 1417.3 84.3849C1437.6 90.8938 1459.34 79.8236 1465.88 59.605C1472.44 39.4121 1461.3 17.7329 1441 11.224C1417.76 3.74134 1393.5 -0.0256195 1368.9 -0.0256195C1279.22 -0.0256195 1196.21 52.0199 1157.4 132.587C1148.19 151.729 1156.3 174.689 1175.52 183.863C1180.9 186.426 1186.58 187.656 1192.19 187.656C1206.58 187.656 1220.4 179.609 1227.03 165.823H1227.01Z" fill="#006AFF"/>
</g>
<defs>
<clipPath id="clip0_1_4">
<rect width="1603.37" height="467" fill="white"/>
</clipPath>
</defs>
</svg>
